<mxfile host="Electron" modified="2023-04-21T21:54:03.944Z" agent="Mozilla/5.0 (Windows NT 10.0; Win64; x64) AppleWebKit/537.36 (KHTML, like Gecko) draw.io/21.1.2 Chrome/106.0.5249.199 Electron/21.4.3 Safari/537.36" etag="tZWdMByTcq_UQLo2tDoU" version="21.1.2" type="device">
  <diagram name="Page-1" id="PWL2UhRzFVZZNOHjkBoN">
    <mxGraphModel dx="2899" dy="2294" grid="1" gridSize="10" guides="1" tooltips="1" connect="1" arrows="1" fold="1" page="1" pageScale="1" pageWidth="850" pageHeight="1100" math="0" shadow="0">
      <root>
        <mxCell id="0" />
        <mxCell id="1" parent="0" />
        <mxCell id="ywj3BDyXeFq298JnpdSI-65" style="edgeStyle=orthogonalEdgeStyle;rounded=0;orthogonalLoop=1;jettySize=auto;html=1;" parent="1" source="ywj3BDyXeFq298JnpdSI-1" target="ywj3BDyXeFq298JnpdSI-2" edge="1">
          <mxGeometry relative="1" as="geometry" />
        </mxCell>
        <mxCell id="ywj3BDyXeFq298JnpdSI-1" value="χρήστης" style="shape=umlActor;verticalLabelPosition=bottom;verticalAlign=top;html=1;outlineConnect=0;" parent="1" vertex="1">
          <mxGeometry x="-5" y="-50" width="30" height="60" as="geometry" />
        </mxCell>
        <mxCell id="ywj3BDyXeFq298JnpdSI-2" value="Κύρια Οθόνη" style="shape=umlBoundary;whiteSpace=wrap;html=1;" parent="1" vertex="1">
          <mxGeometry x="250" y="-60" width="100" height="80" as="geometry" />
        </mxCell>
        <mxCell id="ywj3BDyXeFq298JnpdSI-69" style="edgeStyle=orthogonalEdgeStyle;rounded=0;orthogonalLoop=1;jettySize=auto;html=1;fillColor=#f8cecc;strokeColor=#b85450;" parent="1" source="ywj3BDyXeFq298JnpdSI-6" target="ywj3BDyXeFq298JnpdSI-46" edge="1">
          <mxGeometry relative="1" as="geometry" />
        </mxCell>
        <mxCell id="ywj3BDyXeFq298JnpdSI-70" style="edgeStyle=orthogonalEdgeStyle;rounded=0;orthogonalLoop=1;jettySize=auto;html=1;entryX=0.5;entryY=1;entryDx=0;entryDy=0;" parent="1" source="ywj3BDyXeFq298JnpdSI-6" target="ywj3BDyXeFq298JnpdSI-8" edge="1">
          <mxGeometry relative="1" as="geometry" />
        </mxCell>
        <mxCell id="ywj3BDyXeFq298JnpdSI-6" value="Επικοινωνία με το E.Σ.Υ" style="ellipse;shape=umlControl;whiteSpace=wrap;html=1;" parent="1" vertex="1">
          <mxGeometry x="505" y="-60" width="70" height="80" as="geometry" />
        </mxCell>
        <mxCell id="ywj3BDyXeFq298JnpdSI-8" value="Ε.Σ.Υ(Εθνικό Σύστημα Υγείας)" style="ellipse;shape=umlEntity;whiteSpace=wrap;html=1;" parent="1" vertex="1">
          <mxGeometry x="500" y="-200" width="80" height="80" as="geometry" />
        </mxCell>
        <mxCell id="ywj3BDyXeFq298JnpdSI-10" value="" style="endArrow=classic;html=1;rounded=0;exitX=1.03;exitY=0.463;exitDx=0;exitDy=0;exitPerimeter=0;" parent="1" source="ywj3BDyXeFq298JnpdSI-2" target="ywj3BDyXeFq298JnpdSI-6" edge="1">
          <mxGeometry width="50" height="50" relative="1" as="geometry">
            <mxPoint x="360" y="220" as="sourcePoint" />
            <mxPoint x="380" y="200" as="targetPoint" />
          </mxGeometry>
        </mxCell>
        <mxCell id="ywj3BDyXeFq298JnpdSI-79" style="edgeStyle=orthogonalEdgeStyle;rounded=0;orthogonalLoop=1;jettySize=auto;html=1;" parent="1" source="ywj3BDyXeFq298JnpdSI-11" target="ywj3BDyXeFq298JnpdSI-14" edge="1">
          <mxGeometry relative="1" as="geometry" />
        </mxCell>
        <mxCell id="ywj3BDyXeFq298JnpdSI-11" value="Δημιουργία Κωλαθιού" style="ellipse;shape=umlControl;whiteSpace=wrap;html=1;" parent="1" vertex="1">
          <mxGeometry x="905" y="180" width="70" height="80" as="geometry" />
        </mxCell>
        <mxCell id="ywj3BDyXeFq298JnpdSI-80" style="edgeStyle=orthogonalEdgeStyle;rounded=0;orthogonalLoop=1;jettySize=auto;html=1;entryX=0.5;entryY=1;entryDx=0;entryDy=0;" parent="1" source="ywj3BDyXeFq298JnpdSI-14" target="ywj3BDyXeFq298JnpdSI-23" edge="1">
          <mxGeometry relative="1" as="geometry" />
        </mxCell>
        <mxCell id="ywj3BDyXeFq298JnpdSI-14" value="&lt;font style=&quot;font-size: 11px;&quot;&gt;Εύρεση φαρμακείων με το μέγιστο ποσοστό διαθέσιμων προιόντων&lt;/font&gt;" style="ellipse;shape=umlControl;whiteSpace=wrap;html=1;" parent="1" vertex="1">
          <mxGeometry x="590" y="170" width="140" height="100" as="geometry" />
        </mxCell>
        <mxCell id="ywj3BDyXeFq298JnpdSI-83" style="edgeStyle=orthogonalEdgeStyle;rounded=0;orthogonalLoop=1;jettySize=auto;html=1;" parent="1" source="ywj3BDyXeFq298JnpdSI-17" target="ywj3BDyXeFq298JnpdSI-21" edge="1">
          <mxGeometry relative="1" as="geometry" />
        </mxCell>
        <mxCell id="ywj3BDyXeFq298JnpdSI-17" value="Οθόνη Επιλογής Φαρμακείου" style="shape=umlBoundary;whiteSpace=wrap;html=1;" parent="1" vertex="1">
          <mxGeometry x="235" y="410" width="100" height="80" as="geometry" />
        </mxCell>
        <mxCell id="ywj3BDyXeFq298JnpdSI-20" value="Επιλογή&lt;br style=&quot;border-color: var(--border-color);&quot;&gt;φαρμακείου" style="text;html=1;align=center;verticalAlign=middle;resizable=0;points=[];autosize=1;strokeColor=none;fillColor=none;rotation=60;" parent="1" vertex="1">
          <mxGeometry x="85" y="150" width="90" height="40" as="geometry" />
        </mxCell>
        <mxCell id="ywj3BDyXeFq298JnpdSI-21" value="Προσθήκη Προιόντων στο Καλάθι Αγορών" style="ellipse;shape=umlControl;whiteSpace=wrap;html=1;" parent="1" vertex="1">
          <mxGeometry x="465" y="405" width="100" height="90" as="geometry" />
        </mxCell>
        <mxCell id="ywj3BDyXeFq298JnpdSI-23" value="φαρμακεία" style="ellipse;shape=umlEntity;whiteSpace=wrap;html=1;" parent="1" vertex="1">
          <mxGeometry x="620" y="50" width="80" height="80" as="geometry" />
        </mxCell>
        <mxCell id="ywj3BDyXeFq298JnpdSI-25" value="Υπολογισμός τιμής σε κάθε φαρμακείο" style="ellipse;shape=umlControl;whiteSpace=wrap;html=1;" parent="1" vertex="1">
          <mxGeometry x="395" y="185" width="90" height="80" as="geometry" />
        </mxCell>
        <mxCell id="ywj3BDyXeFq298JnpdSI-28" value="" style="endArrow=classic;html=1;rounded=0;exitX=0;exitY=0.588;exitDx=0;exitDy=0;exitPerimeter=0;entryX=1.014;entryY=0.538;entryDx=0;entryDy=0;entryPerimeter=0;" parent="1" source="ywj3BDyXeFq298JnpdSI-14" target="ywj3BDyXeFq298JnpdSI-25" edge="1">
          <mxGeometry width="50" height="50" relative="1" as="geometry">
            <mxPoint x="390" y="430" as="sourcePoint" />
            <mxPoint x="440" y="380" as="targetPoint" />
          </mxGeometry>
        </mxCell>
        <mxCell id="ywj3BDyXeFq298JnpdSI-81" style="edgeStyle=orthogonalEdgeStyle;rounded=0;orthogonalLoop=1;jettySize=auto;html=1;" parent="1" source="ywj3BDyXeFq298JnpdSI-29" target="ywj3BDyXeFq298JnpdSI-17" edge="1">
          <mxGeometry relative="1" as="geometry" />
        </mxCell>
        <mxCell id="ywj3BDyXeFq298JnpdSI-29" value="Εμφάνιση Φαρμακείου με αύξηση τιμή&amp;nbsp;&lt;br&gt;" style="ellipse;shape=umlControl;whiteSpace=wrap;html=1;" parent="1" vertex="1">
          <mxGeometry x="245" y="180" width="80" height="90" as="geometry" />
        </mxCell>
        <mxCell id="ywj3BDyXeFq298JnpdSI-32" value="" style="endArrow=classic;html=1;rounded=0;exitX=0;exitY=0.588;exitDx=0;exitDy=0;exitPerimeter=0;entryX=0.986;entryY=0.575;entryDx=0;entryDy=0;entryPerimeter=0;" parent="1" source="ywj3BDyXeFq298JnpdSI-25" target="ywj3BDyXeFq298JnpdSI-29" edge="1">
          <mxGeometry width="50" height="50" relative="1" as="geometry">
            <mxPoint x="370" y="510" as="sourcePoint" />
            <mxPoint x="420" y="460" as="targetPoint" />
          </mxGeometry>
        </mxCell>
        <mxCell id="ywj3BDyXeFq298JnpdSI-85" style="edgeStyle=orthogonalEdgeStyle;rounded=0;orthogonalLoop=1;jettySize=auto;html=1;fillColor=#dae8fc;strokeColor=#6c8ebf;" parent="1" source="ywj3BDyXeFq298JnpdSI-33" target="ywj3BDyXeFq298JnpdSI-40" edge="1">
          <mxGeometry relative="1" as="geometry" />
        </mxCell>
        <mxCell id="ywj3BDyXeFq298JnpdSI-87" style="edgeStyle=orthogonalEdgeStyle;rounded=0;orthogonalLoop=1;jettySize=auto;html=1;" parent="1" source="ywj3BDyXeFq298JnpdSI-33" target="ywj3BDyXeFq298JnpdSI-52" edge="1">
          <mxGeometry relative="1" as="geometry" />
        </mxCell>
        <mxCell id="ywj3BDyXeFq298JnpdSI-33" value="Ήταν το ποσοστό διαθέσιμων&amp;nbsp;προϊόντων 100%;" style="ellipse;shape=umlControl;whiteSpace=wrap;html=1;" parent="1" vertex="1">
          <mxGeometry x="750" y="395" width="140" height="100" as="geometry" />
        </mxCell>
        <mxCell id="ywj3BDyXeFq298JnpdSI-35" value="" style="endArrow=classic;html=1;rounded=0;" parent="1" source="ywj3BDyXeFq298JnpdSI-21" target="ywj3BDyXeFq298JnpdSI-33" edge="1">
          <mxGeometry width="50" height="50" relative="1" as="geometry">
            <mxPoint x="530" y="700" as="sourcePoint" />
            <mxPoint x="580" y="650" as="targetPoint" />
          </mxGeometry>
        </mxCell>
        <mxCell id="ywj3BDyXeFq298JnpdSI-84" style="edgeStyle=orthogonalEdgeStyle;rounded=0;orthogonalLoop=1;jettySize=auto;html=1;fillColor=#dae8fc;strokeColor=#6c8ebf;" parent="1" source="ywj3BDyXeFq298JnpdSI-40" target="ywj3BDyXeFq298JnpdSI-14" edge="1">
          <mxGeometry relative="1" as="geometry" />
        </mxCell>
        <mxCell id="ywj3BDyXeFq298JnpdSI-40" value="Δημιουργία Καλαθιού με ταπροϊόντα που έχουν απομείνει" style="ellipse;shape=umlControl;whiteSpace=wrap;html=1;fillColor=#dae8fc;strokeColor=#6c8ebf;" parent="1" vertex="1">
          <mxGeometry x="910" y="300" width="100" height="90" as="geometry" />
        </mxCell>
        <mxCell id="ywj3BDyXeFq298JnpdSI-43" value="Όχι" style="text;html=1;align=center;verticalAlign=middle;resizable=0;points=[];autosize=1;strokeColor=#6c8ebf;fillColor=#dae8fc;" parent="1" vertex="1">
          <mxGeometry x="960" y="405" width="40" height="30" as="geometry" />
        </mxCell>
        <mxCell id="ywj3BDyXeFq298JnpdSI-72" style="edgeStyle=orthogonalEdgeStyle;rounded=0;orthogonalLoop=1;jettySize=auto;html=1;fillColor=#f8cecc;strokeColor=#b85450;" parent="1" source="ywj3BDyXeFq298JnpdSI-46" target="ywj3BDyXeFq298JnpdSI-2" edge="1">
          <mxGeometry relative="1" as="geometry" />
        </mxCell>
        <mxCell id="ywj3BDyXeFq298JnpdSI-46" value="Mήνυμα Λανθασμένου Κωδικού" style="shape=umlBoundary;whiteSpace=wrap;html=1;fillColor=#f8cecc;strokeColor=#b85450;" parent="1" vertex="1">
          <mxGeometry x="860" y="-270" width="100" height="80" as="geometry" />
        </mxCell>
        <mxCell id="ywj3BDyXeFq298JnpdSI-90" style="edgeStyle=orthogonalEdgeStyle;rounded=0;orthogonalLoop=1;jettySize=auto;html=1;" parent="1" source="ywj3BDyXeFq298JnpdSI-52" edge="1">
          <mxGeometry relative="1" as="geometry">
            <mxPoint x="335" y="590" as="targetPoint" />
          </mxGeometry>
        </mxCell>
        <mxCell id="ywj3BDyXeFq298JnpdSI-52" value="Υπολογισμός Συνολικού Κόστους" style="ellipse;shape=umlControl;whiteSpace=wrap;html=1;" parent="1" vertex="1">
          <mxGeometry x="777.5" y="580" width="85" height="100" as="geometry" />
        </mxCell>
        <mxCell id="ywj3BDyXeFq298JnpdSI-55" value="Δημιουργία Παραγγελίας" style="ellipse;whiteSpace=wrap;html=1;strokeColor=#9673a6;fillColor=#e1d5e7;" parent="1" vertex="1">
          <mxGeometry x="465" y="740" width="120" height="80" as="geometry" />
        </mxCell>
        <mxCell id="ywj3BDyXeFq298JnpdSI-94" style="edgeStyle=orthogonalEdgeStyle;rounded=0;orthogonalLoop=1;jettySize=auto;html=1;entryX=1;entryY=0.5;entryDx=0;entryDy=0;" parent="1" source="ywj3BDyXeFq298JnpdSI-58" target="ywj3BDyXeFq298JnpdSI-62" edge="1">
          <mxGeometry relative="1" as="geometry" />
        </mxCell>
        <mxCell id="ywj3BDyXeFq298JnpdSI-58" value="Καταχώηρηση Παραγγελίας" style="ellipse;shape=umlControl;whiteSpace=wrap;html=1;" parent="1" vertex="1">
          <mxGeometry x="160" y="720" width="100" height="80" as="geometry" />
        </mxCell>
        <mxCell id="ywj3BDyXeFq298JnpdSI-62" value="Παραγγελίες" style="ellipse;shape=umlEntity;whiteSpace=wrap;html=1;" parent="1" vertex="1">
          <mxGeometry y="720" width="80" height="80" as="geometry" />
        </mxCell>
        <mxCell id="ywj3BDyXeFq298JnpdSI-68" value="Συμπλήρωση κωδικού συνταγής&lt;br&gt;" style="text;html=1;strokeColor=none;fillColor=none;align=center;verticalAlign=middle;whiteSpace=wrap;rounded=0;" parent="1" vertex="1">
          <mxGeometry x="65" y="-60" width="130" height="30" as="geometry" />
        </mxCell>
        <mxCell id="ywj3BDyXeFq298JnpdSI-71" value="Λάθος Κωδικός" style="text;html=1;strokeColor=#b85450;fillColor=#f8cecc;align=center;verticalAlign=middle;whiteSpace=wrap;rounded=0;" parent="1" vertex="1">
          <mxGeometry x="670" y="-50" width="130" height="30" as="geometry" />
        </mxCell>
        <mxCell id="ywj3BDyXeFq298JnpdSI-78" style="edgeStyle=orthogonalEdgeStyle;rounded=0;orthogonalLoop=1;jettySize=auto;html=1;" parent="1" target="ywj3BDyXeFq298JnpdSI-11" edge="1">
          <mxGeometry relative="1" as="geometry">
            <mxPoint x="940" y="40" as="sourcePoint" />
          </mxGeometry>
        </mxCell>
        <mxCell id="ywj3BDyXeFq298JnpdSI-75" value="" style="endArrow=none;html=1;rounded=0;" parent="1" edge="1">
          <mxGeometry width="50" height="50" relative="1" as="geometry">
            <mxPoint x="550" y="40" as="sourcePoint" />
            <mxPoint x="550" y="20" as="targetPoint" />
          </mxGeometry>
        </mxCell>
        <mxCell id="ywj3BDyXeFq298JnpdSI-77" value="Σωστός Κωδικόος" style="text;html=1;strokeColor=none;fillColor=none;align=center;verticalAlign=middle;whiteSpace=wrap;rounded=0;" parent="1" vertex="1">
          <mxGeometry x="670" y="10" width="130" height="30" as="geometry" />
        </mxCell>
        <mxCell id="ywj3BDyXeFq298JnpdSI-92" style="edgeStyle=orthogonalEdgeStyle;rounded=0;orthogonalLoop=1;jettySize=auto;html=1;" parent="1" source="0InmYa3B-Twqp1HN2Bhv-7" target="ywj3BDyXeFq298JnpdSI-58" edge="1">
          <mxGeometry relative="1" as="geometry">
            <mxPoint x="292.5" y="640" as="sourcePoint" />
          </mxGeometry>
        </mxCell>
        <mxCell id="ywj3BDyXeFq298JnpdSI-101" value="Ναι" style="text;html=1;strokeColor=none;fillColor=none;align=center;verticalAlign=middle;whiteSpace=wrap;rounded=0;" parent="1" vertex="1">
          <mxGeometry x="810" y="520" width="60" height="30" as="geometry" />
        </mxCell>
        <mxCell id="ywj3BDyXeFq298JnpdSI-102" value="Όχι,συνέχεια αγορών" style="text;html=1;strokeColor=#9673a6;fillColor=#e1d5e7;align=center;verticalAlign=middle;whiteSpace=wrap;rounded=0;" parent="1" vertex="1">
          <mxGeometry x="425" y="640" width="90" height="30" as="geometry" />
        </mxCell>
        <mxCell id="0InmYa3B-Twqp1HN2Bhv-1" value="" style="endArrow=none;html=1;rounded=0;" edge="1" parent="1">
          <mxGeometry width="50" height="50" relative="1" as="geometry">
            <mxPoint x="550" y="40" as="sourcePoint" />
            <mxPoint x="940" y="40" as="targetPoint" />
          </mxGeometry>
        </mxCell>
        <mxCell id="0InmYa3B-Twqp1HN2Bhv-2" value="" style="endArrow=classic;html=1;rounded=0;entryX=0.442;entryY=0.013;entryDx=0;entryDy=0;entryPerimeter=0;exitX=0.953;exitY=0.75;exitDx=0;exitDy=0;exitPerimeter=0;" edge="1" parent="1" target="ywj3BDyXeFq298JnpdSI-55">
          <mxGeometry width="50" height="50" relative="1" as="geometry">
            <mxPoint x="331.0050000000001" y="615" as="sourcePoint" />
            <mxPoint x="520" y="720" as="targetPoint" />
          </mxGeometry>
        </mxCell>
        <mxCell id="0InmYa3B-Twqp1HN2Bhv-5" value="" style="endArrow=classic;html=1;rounded=0;entryX=-0.01;entryY=0.4;entryDx=0;entryDy=0;entryPerimeter=0;" edge="1" parent="1" source="ywj3BDyXeFq298JnpdSI-1" target="ywj3BDyXeFq298JnpdSI-17">
          <mxGeometry width="50" height="50" relative="1" as="geometry">
            <mxPoint x="40" y="10" as="sourcePoint" />
            <mxPoint x="610" y="360" as="targetPoint" />
          </mxGeometry>
        </mxCell>
        <mxCell id="0InmYa3B-Twqp1HN2Bhv-6" value="" style="endArrow=classic;html=1;rounded=0;entryX=0;entryY=0.563;entryDx=0;entryDy=0;entryPerimeter=0;" edge="1" parent="1" source="ywj3BDyXeFq298JnpdSI-1" target="0InmYa3B-Twqp1HN2Bhv-7">
          <mxGeometry width="50" height="50" relative="1" as="geometry">
            <mxPoint x="560" y="410" as="sourcePoint" />
            <mxPoint x="210" y="570" as="targetPoint" />
          </mxGeometry>
        </mxCell>
        <mxCell id="0InmYa3B-Twqp1HN2Bhv-7" value="Oλοκλήρωση Παραγγελίας ή Συνέχεια Αγορών" style="shape=umlBoundary;whiteSpace=wrap;html=1;" vertex="1" parent="1">
          <mxGeometry x="235" y="550" width="100" height="80" as="geometry" />
        </mxCell>
        <mxCell id="0InmYa3B-Twqp1HN2Bhv-8" value="Ολοκλήρωση&amp;nbsp;&lt;br&gt;Παραγγελίας" style="text;html=1;strokeColor=none;fillColor=none;align=center;verticalAlign=middle;whiteSpace=wrap;rounded=0;" vertex="1" parent="1">
          <mxGeometry x="210" y="640" width="60" height="30" as="geometry" />
        </mxCell>
        <mxCell id="0InmYa3B-Twqp1HN2Bhv-9" value="" style="endArrow=none;html=1;rounded=0;" edge="1" parent="1">
          <mxGeometry width="50" height="50" relative="1" as="geometry">
            <mxPoint x="40" y="710" as="sourcePoint" />
            <mxPoint x="80" y="60" as="targetPoint" />
            <Array as="points">
              <mxPoint x="60" y="420" />
            </Array>
          </mxGeometry>
        </mxCell>
        <mxCell id="0InmYa3B-Twqp1HN2Bhv-10" value="" style="endArrow=classic;html=1;rounded=0;entryX=0;entryY=0.675;entryDx=0;entryDy=0;entryPerimeter=0;" edge="1" parent="1" target="ywj3BDyXeFq298JnpdSI-2">
          <mxGeometry width="50" height="50" relative="1" as="geometry">
            <mxPoint x="80" y="60" as="sourcePoint" />
            <mxPoint x="610" y="350" as="targetPoint" />
          </mxGeometry>
        </mxCell>
        <mxCell id="0InmYa3B-Twqp1HN2Bhv-11" value="Επιιλογή" style="text;html=1;strokeColor=none;fillColor=none;align=center;verticalAlign=middle;whiteSpace=wrap;rounded=0;rotation=75;" vertex="1" parent="1">
          <mxGeometry x="105" y="375" width="130" height="30" as="geometry" />
        </mxCell>
      </root>
    </mxGraphModel>
  </diagram>
</mxfile>
